<svg width="36" height="36" viewBox="0 0 36 36" fill="none" xmlns="http://www.w3.org/2000/svg">
<path d="M32.4028 35.125L20.1528 22.875C19.1806 23.6528 18.0625 24.2685 16.7986 24.7222C15.5347 25.1759 14.1898 25.4028 12.7639 25.4028C9.23148 25.4028 6.24222 24.1791 3.79611 21.7317C1.35 19.2843 0.126296 16.295 0.125 12.7639C0.125 9.23148 1.3487 6.24222 3.79611 3.79611C6.24352 1.35 9.23278 0.126296 12.7639 0.125C16.2963 0.125 19.2856 1.3487 21.7317 3.79611C24.1778 6.24352 25.4015 9.23278 25.4028 12.7639C25.4028 14.1898 25.1759 15.5347 24.7222 16.7986C24.2685 18.0625 23.6528 19.1806 22.875 20.1528L35.125 32.4028L32.4028 35.125ZM12.7639 21.5139C15.1944 21.5139 17.2607 20.6629 18.9628 18.9608C20.6648 17.2588 21.5152 15.1931 21.5139 12.7639C21.5139 10.3333 20.6629 8.26704 18.9608 6.565C17.2588 4.86296 15.1931 4.01259 12.7639 4.01389C10.3333 4.01389 8.26704 4.86491 6.565 6.56694C4.86296 8.26898 4.01259 10.3346 4.01389 12.7639C4.01389 15.1944 4.86491 17.2607 6.56694 18.9628C8.26898 20.6648 10.3346 21.5152 12.7639 21.5139Z" fill="#A6A6A6"/>
</svg>
